<svg width="106" height="47" viewBox="0 0 106 47" fill="none" xmlns="http://www.w3.org/2000/svg">
<rect x="0.551438" y="11.5413" width="101" height="35" rx="3.5" transform="rotate(-6.24695 0.551438 11.5413)" fill="#F5F6FE" stroke="#BF1D82"/>
<rect x="4.96294" y="15.0823" width="93" height="27" rx="1.5" transform="rotate(-6.24695 4.96294 15.0823)" fill="white" stroke="#BF1D82"/>
<path d="M22.8699 29.8655C24.3133 29.7075 25.1944 28.9351 25.7632 27.9553L24.8653 27.5828C24.4865 28.3124 23.7156 28.8796 22.7733 28.9828C21.0675 29.1695 19.5958 27.9665 19.3895 26.0818C19.1819 24.1851 20.3597 22.7041 22.0655 22.5174C23.0079 22.4143 23.8845 22.8132 24.4109 23.4316L25.195 22.875C24.4649 22.0496 23.4123 21.4767 21.9689 21.6347C19.7144 21.8815 18.0959 23.7487 18.3636 26.1941C18.6313 28.6395 20.6154 30.1123 22.8699 29.8655ZM29.6786 29.1202C31.4321 28.9283 32.3807 27.4483 32.1979 25.7782C32.0151 24.1082 30.7701 22.8804 29.0166 23.0723C27.263 23.2643 26.3132 24.7324 26.496 26.4024C26.6788 28.0724 27.9251 29.3122 29.6786 29.1202ZM29.5911 28.321C28.3624 28.4555 27.5557 27.4815 27.4264 26.3005C27.2984 25.1315 27.8754 24.0061 29.1041 23.8716C30.3327 23.7371 31.1276 24.7124 31.2555 25.8814C31.3848 27.0623 30.8198 28.1865 29.5911 28.321ZM40.9268 27.7441L41.8215 27.6461L41.3658 23.483C41.2391 22.3259 40.6145 21.8028 39.5647 21.9177C38.7297 22.0091 38.0144 22.6427 37.7498 23.2028C37.5175 22.6247 36.9643 22.2024 36.0816 22.299C35.2346 22.3917 34.5258 23.0849 34.3277 23.4808L34.2363 22.6458L33.3417 22.7438L33.9724 28.5053L34.867 28.4074L34.4061 24.1966C34.6653 23.6974 35.2386 23.2001 35.8231 23.1361C36.5746 23.0538 36.9357 23.4851 37.0153 24.2127L37.4436 28.1254L38.3383 28.0274L37.876 23.8047C38.1246 23.3187 38.7099 22.8201 39.3063 22.7548C40.0459 22.6738 40.4189 23.1038 40.4985 23.8315L40.9268 27.7441ZM43.3111 20.6747C43.6451 20.6381 43.8895 20.3337 43.8529 19.9997C43.8164 19.6657 43.5133 19.4333 43.1793 19.4699C42.8572 19.5051 42.6115 19.7976 42.6481 20.1316C42.6847 20.4656 42.9891 20.7099 43.3111 20.6747ZM43.6062 27.4508L44.5009 27.3529L43.8702 21.5913L42.9755 21.6892L43.6062 27.4508ZM50.1743 26.7318L51.069 26.6339L50.6263 22.59C50.4892 21.3375 49.7904 20.7984 48.5856 20.9302C47.7267 21.0243 46.9943 21.6114 46.6409 22.133L46.5495 21.298L45.6549 21.3959L46.2855 27.1575L47.1802 27.0596L46.7193 22.8487C47.0023 22.3469 47.6233 21.8444 48.3271 21.7673C49.1025 21.6825 49.6507 21.9484 49.7617 22.9623L50.1743 26.7318ZM53.0057 27.9188C53.7587 28.5124 54.4476 28.6301 55.4258 28.523C56.8334 28.3689 58.1041 27.6263 57.8952 25.7177L57.2828 20.1231L56.3881 20.221L56.4834 21.0918C55.949 20.5105 55.2154 20.2045 54.44 20.2894C52.925 20.4552 52.0007 21.7153 52.2031 23.5643C52.4068 25.4251 53.5912 26.4302 55.0942 26.2657C55.9053 26.1769 56.5608 25.6585 56.9143 25.0283L57.0044 25.8514C57.1428 27.1158 56.2991 27.679 55.3448 27.7834C54.5217 27.8735 53.9256 27.7215 53.3858 27.2011L53.0057 27.9188ZM56.8373 24.3245C56.582 24.8595 55.9384 25.3765 55.2227 25.4549C54.0656 25.5816 53.2719 24.7268 53.1335 23.4624C52.9938 22.186 53.5851 21.1918 54.7422 21.0651C55.4579 20.9868 56.1968 21.3405 56.5618 21.8075L56.8373 24.3245ZM62.1962 24.6433C62.8486 25.1996 63.6792 25.3984 64.6215 25.2952C66.1126 25.132 66.8031 24.2718 66.6973 23.3055C66.5576 22.0292 65.3692 21.8695 64.3424 21.7526C63.5713 21.6559 62.8956 21.5488 62.8342 20.9881C62.7781 20.4752 63.228 20.0638 64.0153 19.9776C64.7549 19.8967 65.421 20.1376 65.8127 20.5172L66.1623 19.8512C65.6461 19.4369 64.9138 19.1429 63.9356 19.25C62.5638 19.4001 61.872 20.2484 61.97 21.1431C62.1005 22.336 63.2386 22.477 64.2416 22.5965C65.0379 22.7025 65.7639 22.8283 65.8331 23.4605C65.8944 24.0211 65.4604 24.467 64.5777 24.5637C63.7904 24.6498 63.0209 24.3478 62.5909 23.9482L62.1962 24.6433ZM70.8584 24.6125C72.6119 24.4206 73.5605 22.9406 73.3777 21.2705C73.1949 19.6005 71.9499 18.3727 70.1964 18.5646C68.4428 18.7566 67.493 20.2247 67.6758 21.8947C67.8586 23.5647 69.1049 24.8045 70.8584 24.6125ZM70.7709 23.8133C69.5422 23.9478 68.7355 22.9738 68.6062 21.7928C68.4782 20.6238 69.0552 19.4984 70.2839 19.3639C71.5125 19.2294 72.3074 20.2047 72.4353 21.3737C72.5646 22.5546 71.9996 23.6788 70.7709 23.8133ZM77.6848 23.8653C79.4383 23.6733 80.3869 22.1933 80.2041 20.5233C80.0213 18.8533 78.7763 17.6254 77.0228 17.8174C75.2693 18.0093 74.3194 19.4774 74.5022 21.1474C74.685 22.8175 75.9313 24.0572 77.6848 23.8653ZM77.5973 23.066C76.3687 23.2005 75.5619 22.2265 75.4326 21.0456C75.3046 19.8766 75.8816 18.7511 77.1103 18.6166C78.3389 18.4821 79.1338 19.4574 79.2617 20.6264C79.391 21.8074 78.826 22.9315 77.5973 23.066ZM85.8674 22.8247L86.762 22.7268L86.3194 18.6829C86.1822 17.4304 85.4834 16.8913 84.2786 17.0231C83.4198 17.1172 82.6873 17.7043 82.334 18.2259L82.2426 17.3909L81.3479 17.4888L81.9786 23.2504L82.8732 23.1525L82.4123 18.9416C82.6954 18.4398 83.3164 17.9373 84.0202 17.8602C84.7955 17.7754 85.3437 18.0413 85.4547 19.0552L85.8674 22.8247Z" fill="#BF1D82"/>
</svg>
