<svg width="16" height="16" viewBox="0 0 16 16" fill="none" xmlns="http://www.w3.org/2000/svg">
<path fill-rule="evenodd" clip-rule="evenodd" d="M1.33325 7.99999C1.33325 7.63179 1.63173 7.33333 1.99992 7.33333H13.9999C14.3681 7.33333 14.6666 7.63179 14.6666 7.99999C14.6666 8.3682 14.3681 8.66666 13.9999 8.66666H1.99992C1.63173 8.66666 1.33325 8.3682 1.33325 7.99999Z" fill="#2B2B2B"/>
<path fill-rule="evenodd" clip-rule="evenodd" d="M6.47133 3.52859C6.73165 3.78894 6.73165 4.21105 6.47133 4.4714L2.94273 8L6.47133 11.5286C6.73165 11.7889 6.73165 12.2111 6.47133 12.4714C6.21097 12.7317 5.78887 12.7317 5.52851 12.4714L1.52851 8.4714C1.26817 8.21106 1.26817 7.78893 1.52851 7.52859L5.52851 3.52859C5.78887 3.26824 6.21097 3.26824 6.47133 3.52859Z" fill="#2B2B2B"/>
</svg>
