<svg width="24" height="20" viewBox="0 0 24 20" fill="none" xmlns="http://www.w3.org/2000/svg">
<path d="M7.54782 19.755C16.605 19.755 21.5577 12.2516 21.5577 5.74509C21.5577 5.53197 21.5534 5.31981 21.5438 5.10861C22.5053 4.41356 23.341 3.54619 24 2.55882C23.1178 2.95098 22.1683 3.21499 21.1723 3.33403C22.1889 2.72442 22.9694 1.76009 23.3376 0.610479C22.3862 1.17448 21.3326 1.58441 20.2108 1.80569C19.3123 0.848564 18.0331 0.25 16.6166 0.25C13.8973 0.25 11.6922 2.45514 11.6922 5.17341C11.6922 5.55981 11.7354 5.93565 11.8199 6.29614C7.72736 6.09021 4.09853 4.13084 1.67018 1.15145C1.2473 1.87914 1.00346 2.72442 1.00346 3.62635C1.00346 5.33469 1.87274 6.84286 3.19468 7.72511C2.38683 7.70015 1.62794 7.47839 0.964575 7.10927C0.96385 7.12993 0.963852 7.15007 0.963852 7.17215C0.963852 9.55681 2.66115 11.5479 4.91429 11.9991C4.50052 12.1119 4.06516 12.1724 3.61588 12.1724C3.29907 12.1724 2.99043 12.1412 2.69043 12.0836C3.31731 14.0401 5.13509 15.4637 7.29031 15.5036C5.60502 16.8246 3.48196 17.6113 1.17457 17.6113C0.777609 17.6113 0.385444 17.5887 0 17.5431C2.17922 18.9399 4.76693 19.755 7.54807 19.755" fill="white"/>
</svg>
